<svg width="58" height="61" viewBox="0 0 58 61" fill="none" xmlns="http://www.w3.org/2000/svg">
<g filter="url(#filter0_d_46_940)">
<path fill-rule="evenodd" clip-rule="evenodd" d="M4 10C4 5.58172 7.58172 2 12 2H46C50.4183 2 54 5.58172 54 10V41.7617C54 46.18 50.4191 49.7617 46.0009 49.7617C40.5589 49.7617 34.1617 49.7617 33.1172 49.7617C31.2477 49.7617 28.9698 55 28.9698 55C28.9698 55 26.425 49.7617 24.8944 49.7617C24.0332 49.7617 17.5266 49.7617 12 49.7617C7.58168 49.7617 4 46.18 4 41.7617L4 10Z" fill="white"/>
</g>
<defs>
<filter id="filter0_d_46_940" x="0" y="0" width="58" height="61" filterUnits="userSpaceOnUse" color-interpolation-filters="sRGB">
<feFlood flood-opacity="0" result="BackgroundImageFix"/>
<feColorMatrix in="SourceAlpha" type="matrix" values="0 0 0 0 0 0 0 0 0 0 0 0 0 0 0 0 0 0 127 0" result="hardAlpha"/>
<feOffset dy="2"/>
<feGaussianBlur stdDeviation="2"/>
<feColorMatrix type="matrix" values="0 0 0 0 0.138068 0 0 0 0 0.799055 0 0 0 0 0.532034 0 0 0 1 0"/>
<feBlend mode="normal" in2="BackgroundImageFix" result="effect1_dropShadow_46_940"/>
<feBlend mode="normal" in="SourceGraphic" in2="effect1_dropShadow_46_940" result="shape"/>
</filter>
</defs>
</svg>
