<svg width="15" height="14" viewBox="0 0 15 14" fill="none" xmlns="http://www.w3.org/2000/svg">
<path d="M1.13594 11.9498C0.745419 12.3403 0.745419 12.9735 1.13594 13.364C1.52647 13.7545 2.15963 13.7545 2.55016 13.364L1.13594 11.9498ZM13.8639 2.05027C14.2544 1.65974 14.2544 1.02658 13.8639 0.636053C13.4733 0.245529 12.8402 0.245529 12.4497 0.636053L13.8639 2.05027ZM0.84305 12.6569C0.84305 13.2092 1.29077 13.6569 1.84305 13.6569C2.39534 13.6569 2.84305 13.2092 2.84305 12.6569L0.84305 12.6569ZM2.84305 7.70712C2.84305 7.15484 2.39534 6.70712 1.84305 6.70712C1.29077 6.70712 0.84305 7.15484 0.84305 7.70712L2.84305 7.70712ZM1.84305 11.6569C1.29077 11.6569 0.843051 12.1046 0.84305 12.6569C0.84305 13.2092 1.29077 13.6569 1.84305 13.6569L1.84305 11.6569ZM6.7928 13.6569C7.34508 13.6569 7.7928 13.2092 7.7928 12.6569C7.7928 12.1046 7.34508 11.6569 6.7928 11.6569V13.6569ZM13.1568 2.34316C13.709 2.34316 14.1568 1.89544 14.1568 1.34316C14.1568 0.790875 13.709 0.34316 13.1568 0.34316L13.1568 2.34316ZM8.20701 0.34316C7.65473 0.34316 7.20701 0.790875 7.20701 1.34316C7.20701 1.89544 7.65473 2.34316 8.20701 2.34316L8.20701 0.34316ZM14.1568 1.34316C14.1568 0.790875 13.709 0.34316 13.1568 0.34316C12.6045 0.34316 12.1568 0.790875 12.1568 1.34316L14.1568 1.34316ZM12.1568 6.29291C12.1568 6.84519 12.6045 7.29291 13.1568 7.29291C13.709 7.29291 14.1568 6.84519 14.1568 6.29291L12.1568 6.29291ZM2.55016 13.364L13.8639 2.05027L12.4497 0.636053L1.13594 11.9498L2.55016 13.364ZM2.84305 12.6569L2.84305 7.70712L0.84305 7.70712L0.84305 12.6569L2.84305 12.6569ZM1.84305 13.6569L6.7928 13.6569V11.6569L1.84305 11.6569L1.84305 13.6569ZM13.1568 0.34316H8.20701L8.20701 2.34316H13.1568L13.1568 0.34316ZM12.1568 1.34316L12.1568 6.29291L14.1568 6.29291L14.1568 1.34316L12.1568 1.34316Z" fill="#3ED598"/>
</svg>
